
<svg version="1.1" xmlns="http://www.w3.org/2000/svg" width="24" height="24" viewBox="0 0 378 375" preserveAspectRatio="xMidYMid meet">
<path d="M0 0 C2.50645562 1.3425884 4.8549661 2.85831523 7.2421875 4.40234375 C19.24551862 11.3561149 32.78488143 11.85738405 46.2578125 10.7265625 C55.19185819 9.46388404 64.19660796 6.64896515 71.75 1.625 C75.63028816 -0.31514408 77.40139544 -0.00876666 81.56103516 0.55029297 C85.44126953 1.26574759 89.09515748 2.44455558 92.8125 3.75 C93.59294678 4.01876953 94.37339355 4.28753906 95.17749023 4.56445312 C108.09798892 9.06965328 121.29999333 13.83999145 130 25 C135.54905208 33.83779781 139.13305716 41.48848398 139 52 C138.17838379 52.00364563 137.35676758 52.00729126 136.51025391 52.01104736 C128.74235944 52.04901742 120.97493981 52.10597147 113.20735168 52.18390274 C109.21455312 52.22330176 105.22197258 52.25552702 101.22900391 52.27099609 C97.37078418 52.28621313 93.51316416 52.32074656 89.6552124 52.36830902 C88.18818392 52.38307116 86.72106979 52.39103804 85.25396729 52.39188385 C76.02943302 52.27414795 76.02943302 52.27414795 67.22265625 54.66308594 C63.99195324 56.79023342 63.99195324 56.79023342 62.03198242 59.44775391 C60.45191061 64.88661003 60.51845126 70.19863906 60.48828125 75.8359375 C60.46135445 77.68767075 60.46135445 77.68767075 60.43388367 79.57681274 C60.37981569 83.50950737 60.34589498 87.44208083 60.3125 91.375 C60.28095535 94.04561882 60.24483421 96.71615139 60.20898438 99.38671875 C60.12409091 105.92437053 60.05572589 112.46203805 60 119 C58.10987415 119.3296804 56.21902198 119.65519813 54.32788086 119.97900391 C53.27499374 120.16073151 52.22210663 120.34245911 51.13731384 120.5296936 C28.55511306 123.91493142 5.33164083 119.01385062 -14.97314453 109.02978516 C-23.01281948 104.89974461 -30.17722637 99.91759637 -37 94 C-38.21236328 93.00419922 -38.21236328 93.00419922 -39.44921875 91.98828125 C-46.20029895 86.25463229 -51.59175943 79.75831495 -56.79736328 72.63671875 C-57.84790209 71.20699642 -58.93474961 69.80409684 -60.02734375 68.40625 C-63.4638513 63.55470993 -64.42418765 59.6388479 -64.625 53.6875 C-64.13603886 42.90862331 -61.42695626 33.81735512 -54.83984375 25.2109375 C-53.92912109 24.11652344 -53.92912109 24.11652344 -53 23 C-52.46503906 22.35289062 -51.93007812 21.70578125 -51.37890625 21.0390625 C-41.58792538 10.28541924 -26.31528846 6.5912894 -13 2 C-11.85660156 1.60296875 -10.71320313 1.2059375 -9.53515625 0.796875 C-6.01250673 -0.3103985 -3.69507486 -0.49267665 0 0 Z " fill="currentColor" transform="translate(133,167)" />
<path d="M0 0 C12.83909619 7.01381483 21.06892769 16.08817203 27.55078125 29.1171875 C32.09648126 40.00125795 32.31586903 51.50078037 30.5234375 63.078125 C29.86954905 65.52035896 29.03733556 67.69568971 28 70 C27.62101562 70.93585938 27.24203125 71.87171875 26.8515625 72.8359375 C22.15060249 83.40630422 14.33583752 92.70346742 4.39453125 98.7578125 C-8.40861161 105.3995734 -19.74401758 107.08434105 -34 106 C-46.18189107 103.79996807 -55.80283408 97.71024434 -64.7421875 89.359375 C-72.17547476 81.59171842 -77.31543996 71.37785553 -80 61 C-81.58944619 49.50672725 -80.6423544 38.10400724 -75.828125 27.51953125 C-70.00833888 16.31519942 -61.94527484 6.94608836 -50.69775391 0.98535156 C-34.52300734 -7.20384506 -16.55549205 -7.63962808 0 0 Z " fill="currentColor" transform="translate(195,62)" />
<path d="M0 0 C1.03898438 0.226875 2.07796875 0.45375 3.1484375 0.6875 C29.54835774 7.02982318 52.39800859 23.28365243 70.6875 42.875 C88.16383413 62.96021135 100.30190848 88.46287844 103.5703125 114.97265625 C105.32419017 132.78704233 104.1682458 150.35727873 100.0625 167.75 C99.82611816 168.7709375 99.82611816 168.7709375 99.58496094 169.8125 C98.90087764 172.51044774 98.2153732 174.70561761 96.5625 176.96484375 C96.046875 177.30644531 95.53125 177.64804688 95 178 C91.9375 177.8125 91.9375 177.8125 89 177 C88.34 176.34 87.68 175.68 87 175 C86.55079153 170.17279152 87.6555955 165.9203821 88.9375 161.3125 C91.55752131 151.25503558 92.07103317 141.74652437 92.125 131.375 C92.13225098 130.05012573 92.13225098 130.05012573 92.13964844 128.69848633 C92.07397375 103.5990286 82.66030847 79.63914641 68.5 59.125 C59.46832808 46.54617768 48.17624586 36.08759885 35 28 C33.91460937 27.31550781 32.82921875 26.63101563 31.7109375 25.92578125 C9.17616078 12.32720909 -16.77463085 6.19633402 -43.04931641 7.74755859 C-55.31464949 8.79690117 -66.67196466 11.206772 -78 16 C-79.64400417 16.62979571 -81.28963725 17.2553705 -82.9375 17.875 C-105.85400785 27.14139509 -125.65560837 44.46330768 -139.27416992 64.91333008 C-146.83266323 76.69521384 -153.09663823 90.06625493 -155.625 103.875 C-156.90851735 110.8170347 -156.90851735 110.8170347 -158 113 C-159.06355564 122.29626411 -159.22926915 131.65455258 -159 141 C-158.98324219 141.9384375 -158.96648437 142.876875 -158.94921875 143.84375 C-157.80777515 167.06397403 -147.94958305 190.94784493 -134.078125 209.39648438 C-124.55682699 221.65916734 -113.77147989 231.28564632 -101 240 C-99.72189453 240.87978516 -99.72189453 240.87978516 -98.41796875 241.77734375 C-87.92208267 248.51831317 -75.19274648 253.47572046 -63 256 C-61.72125 256.27714844 -60.4425 256.55429687 -59.125 256.83984375 C-47.60793385 259.09776444 -36.32817171 259.23404539 -24.61181641 258.97729492 C-22.80849854 258.94406128 -22.80849854 258.94406128 -20.96875 258.91015625 C-19.89044922 258.88058838 -18.81214844 258.85102051 -17.70117188 258.82055664 C-15 259 -15 259 -12 261 C-12 263.31 -12 265.62 -12 268 C-19.70085945 273.1339063 -31.7159577 271.30376162 -40.60546875 271.21875 C-67.24989603 270.5898802 -93.82655556 260.23869679 -115.25 244.625 C-139.0526245 226.00105461 -156.01304909 203.09207849 -165.375 174.1875 C-169.25195789 160.43226583 -171.1815032 146.82955747 -171.125 132.5625 C-171.12886719 131.58990234 -171.13273437 130.61730469 -171.13671875 129.61523438 C-171.11450189 112.9859146 -171.11450189 112.9859146 -168 106 C-167.7313021 104.27653368 -167.5051242 102.54611779 -167.3125 100.8125 C-163.50657141 76.79679559 -148.49290119 54.14648317 -131.9140625 36.953125 C-130.94471625 35.96677268 -129.9734974 34.9822555 -129 34 C-128.22398437 33.21109375 -127.44796875 32.4221875 -126.6484375 31.609375 C-114.41643445 19.92381882 -99.50744803 11.49631051 -84 5 C-82.90042969 4.51917969 -81.80085938 4.03835937 -80.66796875 3.54296875 C-55.17821997 -6.65909515 -26.3102902 -6.29981891 0 0 Z " fill="currentColor" transform="translate(204,39)" />
<path d="M0 0 C2.42225647 -0.37752342 2.42225647 -0.37752342 5.35180664 -0.38095093 C7.01749191 -0.39364014 7.01749191 -0.39364014 8.71682739 -0.40658569 C10.54502518 -0.39747665 10.54502518 -0.39747665 12.41015625 -0.38818359 C13.69324677 -0.39344055 14.97633728 -0.39869751 16.29830933 -0.40411377 C19.81896824 -0.41780278 23.33936373 -0.41248235 26.86002731 -0.40297651 C30.54219021 -0.39538805 34.22433037 -0.40242326 37.90649414 -0.40713501 C44.09037328 -0.41259495 50.27414498 -0.40539476 56.45800781 -0.39111328 C63.61025509 -0.37478623 70.76224583 -0.38007458 77.91448689 -0.3965925 C84.05214543 -0.41020063 90.18972669 -0.41213035 96.32739544 -0.40427649 C99.99452101 -0.39959624 103.66152595 -0.39898469 107.3286438 -0.40888596 C111.41586535 -0.4191504 115.50264371 -0.40492929 119.58984375 -0.38818359 C120.80864227 -0.39425629 122.0274408 -0.40032898 123.28317261 -0.40658569 C124.94885788 -0.39389648 124.94885788 -0.39389648 126.64819336 -0.38095093 C128.09832069 -0.37925431 128.09832069 -0.37925431 129.57774353 -0.37752342 C130.77676048 -0.19064933 130.77676048 -0.19064933 132 0 C132.99 0.99 133.98 1.98 135 3 C135 11.91 135 20.82 135 30 C89.46 30 43.92 30 -3 30 C-3 21.09 -3 12.18 -3 3 C-2.01 2.01 -1.02 1.02 0 0 Z " fill="currentColor" transform="translate(206,230)" />
<path d="M0 0 C45.54 0 91.08 0 138 0 C138 8.58 138 17.16 138 26 C137.01 27.32 136.02 28.64 135 30 C132.57774353 30.50336456 132.57774353 30.50336456 129.64819336 30.50793457 C128.53773651 30.51921387 127.42727966 30.53049316 126.28317261 30.54211426 C125.06437408 30.53401733 123.84557556 30.52592041 122.58984375 30.51757812 C121.30675323 30.5245874 120.02366272 30.53159668 118.70169067 30.53881836 C115.18096469 30.55707072 111.66070697 30.54997673 108.13997269 30.53730202 C104.45780411 30.52718405 100.77567598 30.53656433 97.09350586 30.54284668 C90.90959464 30.55012664 84.72587442 30.5405264 78.54199219 30.52148438 C71.38967679 30.49971477 64.23781746 30.50676591 57.08551311 30.52879 C50.94783718 30.54693423 44.81029865 30.54950717 38.67260456 30.53903532 C35.00544571 30.53279493 31.33850132 30.53197948 27.6713562 30.54518127 C23.5840142 30.5588676 19.49746002 30.53990628 15.41015625 30.51757812 C13.58195847 30.52972351 13.58195847 30.52972351 11.71682739 30.54211426 C10.60637054 30.53083496 9.4959137 30.51955566 8.35180664 30.50793457 C6.90167931 30.50567242 6.90167931 30.50567242 5.42225647 30.50336456 C4.62291183 30.33725426 3.8235672 30.17114395 3 30 C2.01 28.68 1.02 27.36 0 26 C0 17.42 0 8.84 0 0 Z " fill="currentColor" transform="translate(203,311)" />
<path d="M0 0 C45.21 0 90.42 0 137 0 C137 9.57 137 19.14 137 29 C91.79 29 46.58 29 0 29 C0 19.43 0 9.86 0 0 Z " fill="currentColor" transform="translate(204,271)" />
<path d="M0 0 C1.55847656 0.3403125 1.55847656 0.3403125 3.1484375 0.6875 C29.54835774 7.02982318 52.39800859 23.28365243 70.6875 42.875 C88.16383413 62.96021135 100.30190848 88.46287844 103.5703125 114.97265625 C105.32419017 132.78704233 104.1682458 150.35727873 100.0625 167.75 C99.82611816 168.7709375 99.82611816 168.7709375 99.58496094 169.8125 C98.90087764 172.51044774 98.2153732 174.70561761 96.5625 176.96484375 C96.046875 177.30644531 95.53125 177.64804688 95 178 C91.9375 177.8125 91.9375 177.8125 89 177 C88.34 176.34 87.68 175.68 87 175 C86.55079153 170.17279152 87.6555955 165.9203821 88.9375 161.3125 C91.55752131 151.25503558 92.07103317 141.74652437 92.125 131.375 C92.12983398 130.49175049 92.13466797 129.60850098 92.13964844 128.69848633 C92.07397375 103.5990286 82.66030847 79.63914641 68.5 59.125 C59.46832808 46.54617768 48.17624586 36.08759885 35 28 C33.91460937 27.31550781 32.82921875 26.63101563 31.7109375 25.92578125 C9.17616078 12.32720909 -16.77463085 6.19633402 -43.04931641 7.74755859 C-55.30797195 8.79632989 -66.68195155 11.19381967 -78 16 C-79.66475585 16.65074299 -81.33121093 17.29717077 -83 17.9375 C-87.46819146 19.71205072 -91.71434077 21.81196382 -95.96875 24.046875 C-98 25 -98 25 -100 25 C-100.29546177 21.61860417 -100.38449731 18.37734123 -100 15 C-96.93805527 10.24870646 -92.17576027 8.39170638 -87.109375 6.25390625 C-86.08328125 5.84011719 -85.0571875 5.42632812 -84 5 C-83.01515625 4.57589844 -82.0303125 4.15179688 -81.015625 3.71484375 C-55.31722397 -6.53317715 -26.54860925 -6.35688277 0 0 Z " fill="currentColor" transform="translate(204,39)" />
<path d="M0 0 C0.66 0.33 1.32 0.66 2 1 C1.67 1.33 1.34 1.66 1 2 C0.87481177 4.76856867 0.81391795 7.51341126 0.79467773 10.28344727 C0.78477814 11.15166107 0.77487854 12.01987488 0.76467896 12.91439819 C0.73296632 15.79837267 0.70826812 18.68236365 0.68359375 21.56640625 C0.66303264 23.56038351 0.6420364 25.55435632 0.62062073 27.54832458 C0.56531293 32.80740776 0.5159422 38.06653083 0.46777344 43.32568359 C0.41762182 48.68786182 0.36190274 54.04998181 0.30664062 59.41210938 C0.19895262 69.94135655 0.09753144 80.4706542 0 91 C-4.5166655 89.33350946 -7.63886069 87.01618864 -11.125 83.75 C-11.68904541 83.22422363 -12.25309082 82.69844727 -12.83422852 82.15673828 C-18.46014991 76.77473574 -23.293412 70.89362574 -27.84570312 64.58837891 C-28.87221085 63.17584522 -29.94115594 61.79437194 -31.015625 60.41796875 C-34.46146493 55.56319894 -35.42392076 51.64675751 -35.625 45.6875 C-35.13603886 34.90862331 -32.42695626 25.81735512 -25.83984375 17.2109375 C-25.23269531 16.48132813 -24.62554687 15.75171875 -24 15 C-23.46503906 14.35289062 -22.93007812 13.70578125 -22.37890625 13.0390625 C-16.64182494 6.73790365 -8.31537263 1.91893215 0 0 Z " fill="currentColor" transform="translate(104,175)" />
<path d="M0 0 C4.08279617 1.26686763 7.7300826 2.80576026 11.5 4.8125 C31.94795925 15.06141616 52.98302228 17.59906742 75.64282227 17.02856445 C76.81901123 17.00109131 77.9952002 16.97361816 79.20703125 16.9453125 C80.2535083 16.90937988 81.29998535 16.87344727 82.37817383 16.83642578 C85 17 85 17 88 19 C88 21.31 88 23.62 88 26 C80.29914055 31.1339063 68.2840423 29.30376162 59.39453125 29.21875 C39.39471223 28.74670825 18.52384199 22.62246681 1 13 C-0.32229189 10.35541621 -0.09677194 8.32238699 -0.0625 5.375 C-0.05347656 4.37210937 -0.04445313 3.36921875 -0.03515625 2.3359375 C-0.02355469 1.56507813 -0.01195313 0.79421875 0 0 Z " fill="currentColor" transform="translate(104,281)" />
</svg>
