
<svg version="1.1" xmlns="http://www.w3.org/2000/svg" width="24" height="24" viewBox="0 0 375 373" preserveAspectRatio="xMidYMid meet">
<path d="M0 0 C1.99522918 -0.00542755 3.99045435 -0.01255375 5.985672 -0.02124023 C11.37818295 -0.03939997 16.77038612 -0.03243676 22.16290212 -0.01972389 C27.819664 -0.00955947 33.47640047 -0.01899898 39.13316345 -0.02526855 C48.62951361 -0.03253435 58.1257391 -0.02298465 67.62207031 -0.00390625 C78.58588905 0.01786663 89.54941026 0.01080368 100.5132218 -0.01121187 C109.94454552 -0.0293888 119.37577991 -0.03191315 128.8071155 -0.0214572 C134.43222613 -0.0152357 140.05719711 -0.01434977 145.68229866 -0.02760315 C150.97087534 -0.03919459 156.25906992 -0.03107566 161.54760551 -0.00802612 C163.48331443 -0.0027569 165.41905575 -0.00422204 167.35475159 -0.01307678 C178.33491317 -0.05865777 187.22866476 0.10524031 196.76928711 6.15820312 C197.65487305 6.95484375 197.65487305 6.95484375 198.55834961 7.76757812 C199.46713867 8.54875 199.46713867 8.54875 200.39428711 9.34570312 C203.62437198 13.26694153 205.85614553 17.16244682 206.55674744 22.2052002 C206.70216702 25.37015843 206.72386997 28.51338673 206.70092773 31.68164062 C206.70793701 32.87940125 206.71494629 34.07716187 206.72216797 35.31121826 C206.73669445 38.57586232 206.73337758 41.83985109 206.72065163 45.10448456 C206.71046971 48.53337397 206.71993163 51.96222201 206.72619629 55.39111328 C206.7334577 61.14753997 206.72392484 66.90376086 206.70483398 72.66015625 C206.6830679 79.29955095 206.69012035 85.93845419 206.71213961 92.57783699 C206.73033685 98.29531602 206.73283093 104.01264776 206.72238493 109.73014641 C206.7161736 113.13750123 206.71524864 116.54462564 206.72853088 119.95196533 C206.73871294 123.75281788 206.72316986 127.55273273 206.70092773 131.35351562 C206.70902466 132.47167664 206.71712158 133.58983765 206.72546387 134.74188232 C206.63534189 143.07381968 204.61048383 148.01171758 199.93334961 154.76757812 C195.91957909 158.78134865 191.5170735 160.73967016 186.18334961 162.51757812 C183.43254032 162.6221205 180.70663256 162.66976144 177.95542908 162.67147827 C176.68197399 162.67805165 176.68197399 162.67805165 175.38279253 162.68475783 C172.52716546 162.69815287 169.67156925 162.70432633 166.81591797 162.71044922 C164.7726121 162.71834976 162.72930763 162.72661868 160.68600464 162.73522949 C153.96508112 162.7614596 147.24415134 162.77676013 140.52319336 162.79101562 C138.20948342 162.79637528 135.89577353 162.80175279 133.58206367 162.80714798 C123.95619083 162.82877994 114.33031968 162.8475158 104.70442867 162.85877037 C90.91151039 162.87500297 77.11887411 162.9081607 63.32606214 162.96517122 C53.62741179 163.00389102 43.92883679 163.02340562 34.23011118 163.02869093 C28.43824673 163.03234213 22.64668299 163.04433892 16.85490227 163.07679367 C11.40227862 163.10690911 5.95013709 163.11317349 0.49744797 163.10140991 C-1.49955608 163.10118946 -3.49658272 163.10947112 -5.49350929 163.12706375 C-23.68130962 163.27852129 -23.68130962 163.27852129 -31.00618649 158.92040443 C-35.69231025 155.28939158 -38.86454405 151.23306565 -41.16604805 145.74426079 C-42.52280688 141.10076171 -42.23996435 136.26670635 -42.22070312 131.46704102 C-42.22756638 130.26942642 -42.23442963 129.07181183 -42.24150085 127.83790588 C-42.25661835 124.5691793 -42.25827601 121.30081218 -42.25255847 118.03206563 C-42.24945737 115.29610261 -42.25556927 112.56019064 -42.26159722 109.8242349 C-42.27562005 103.36625946 -42.27409994 96.90841638 -42.26269531 90.45043945 C-42.25121621 83.80369667 -42.26529101 77.15735748 -42.29209179 70.51066786 C-42.31429296 64.78897653 -42.32087627 59.06741149 -42.31501538 53.34568018 C-42.31165509 49.93494046 -42.3139984 46.52445939 -42.3312664 43.11375618 C-42.34616831 39.30803659 -42.3355035 35.50320195 -42.31835938 31.69750977 C-42.32802734 30.57777771 -42.33769531 29.45804565 -42.34765625 28.30438232 C-42.27457085 20.54382005 -40.80157233 15.74052112 -36.28149414 9.34570312 C-26.31715811 -0.94992797 -13.28923427 -0.06086051 0 0 Z " fill="#010101" transform="translate(102.816650390625,20.482421875)" />
<path d="M0 0 C9.24 0 18.48 0 28 0 C28 5.28 28 10.56 28 16 C29.48322754 15.98428955 30.96645508 15.9685791 32.49462891 15.95239258 C38.00726879 15.89801664 43.51988504 15.86362173 49.03271484 15.83520508 C51.41687001 15.820136 53.80099753 15.79967709 56.18505859 15.77368164 C59.61562937 15.73721663 63.045833 15.72025448 66.4765625 15.70703125 C68.07064438 15.68380547 68.07064438 15.68380547 69.69692993 15.66011047 C75.22673087 15.65885819 79.25397425 15.82420493 84 19 C86.875 21.625 86.875 21.625 89 25 C89.64601458 28.1345751 89.60749519 30.86127485 89 34 C87.27829488 37.44341024 85.82868441 39.40775325 82.70609951 41.63941193 C79.6664718 43.1676932 77.77319241 43.38138204 74.38990784 43.39440918 C73.27262299 43.40575897 72.15533813 43.41710876 71.00419617 43.42880249 C69.78795059 43.42587189 68.57170502 43.42294128 67.31860352 43.41992188 C65.38612762 43.43262619 65.38612762 43.43262619 63.41461182 43.44558716 C59.88770015 43.46777564 56.3610223 43.47073524 52.83405042 43.46883965 C49.88674475 43.46871983 46.93948842 43.47728842 43.9921965 43.48561716 C37.03765146 43.50484133 30.08322644 43.50773855 23.12866211 43.50097656 C15.96040907 43.49433495 8.79267049 43.51720669 1.62452179 43.55429029 C-4.53616149 43.58500232 -10.69667938 43.59634577 -16.85743767 43.59245348 C-20.53424557 43.59038764 -24.210653 43.59583911 -27.88738823 43.62034607 C-31.98834087 43.64677867 -36.08820914 43.63287412 -40.18920898 43.61523438 C-41.40343033 43.62849762 -42.61765167 43.64176086 -43.8686676 43.65542603 C-51.89775849 43.57507953 -51.89775849 43.57507953 -55.07434273 41.91773987 C-57.80943444 39.70604004 -59.87079841 37.34083309 -61 34 C-61.66511469 30.86866356 -61.68061173 28.13183744 -61 25 C-59.07892045 21.86311395 -56.87840449 19.29336293 -54 17 C-50.94825865 16.00476039 -48.152708 15.87840225 -44.95605469 15.88647461 C-43.95531921 15.88655014 -42.95458374 15.88662567 -41.92352295 15.88670349 C-40.31395721 15.89444542 -40.31395721 15.89444542 -38.671875 15.90234375 C-37.56773254 15.9037587 -36.46359009 15.90517365 -35.32598877 15.90663147 C-31.80063158 15.91222742 -28.27533798 15.92477921 -24.75 15.9375 C-22.35937592 15.94251552 -19.96875084 15.94707834 -17.578125 15.95117188 C-11.71872551 15.96219553 -5.85937354 15.97945743 0 16 C0 10.72 0 5.44 0 0 Z " fill="#030303" transform="translate(171,191)" />
<path d="M0 0 C10.23 0 20.46 0 31 0 C32.464375 2.64 33.92875 5.28 35.4375 8 C39.89411572 16.02658255 44.38275555 24.0346189 48.89111328 32.03222656 C50.38626094 34.68543882 51.87924655 37.33986445 53.37207031 39.99438477 C54.12517079 41.33350174 54.87842648 42.67253144 55.63183594 44.01147461 C57.47160448 47.28115833 59.30985852 50.55167265 61.14453125 53.82421875 C61.67929077 54.77639282 61.67929077 54.77639282 62.22485352 55.74780273 C62.95031834 57.04158904 63.67346283 58.33667915 64.39428711 59.63305664 C66.60314968 63.58765645 68.88684921 67.48527104 71.234375 71.359375 C71.78569092 72.28403564 72.33700684 73.20869629 72.9050293 74.16137695 C73.98427485 75.96902185 75.07880324 77.76765739 76.19067383 79.55541992 C79.15032642 84.5536554 80.59699129 88.26280814 80.30712891 94.11035156 C79.65018271 98.15229398 77.60800985 100.35622486 74.875 103.25 C71.55165594 105.27290508 69.0565473 105.90600365 65.203125 106.1484375 C63 106 63 106 59.8125 104.625 C56.08119401 101.14244774 53.61113518 97.36274456 51 93 C50.14728516 91.58074219 50.14728516 91.58074219 49.27734375 90.1328125 C45.99182977 84.57271192 42.84420591 78.94444364 39.76953125 73.265625 C33.51450936 61.7221409 27.15742791 50.23688605 20.6875 38.8125 C20.15608398 37.87349854 19.62466797 36.93449707 19.07714844 35.96704102 C16.73900415 31.83629622 14.40034935 27.70584731 12.05859375 23.57714844 C10.09651585 20.11677617 8.14194613 16.65218863 6.1875 13.1875 C5.57028076 12.10122314 4.95306152 11.01494629 4.31713867 9.89575195 C3.7522876 8.8924585 3.18743652 7.88916504 2.60546875 6.85546875 C2.10168701 5.96496826 1.59790527 5.07446777 1.07885742 4.15698242 C0 2 0 2 0 0 Z " fill="#030303" transform="translate(215,243)" />
<path d="M0 0 C10.23 0 20.46 0 31 0 C29.58747301 4.23758096 28.46324345 7.24708998 26.3125 10.984375 C25.78366211 11.91056641 25.25482422 12.83675781 24.70996094 13.79101562 C23.86353027 15.25571289 23.86353027 15.25571289 23 16.75 C21.8170709 18.81734372 20.63478608 20.88505623 19.453125 22.953125 C18.86724609 23.97599609 18.28136719 24.99886719 17.67773438 26.05273438 C15.32832695 30.17992391 13.0383393 34.3387585 10.75 38.5 C7.33417024 44.6910194 3.77307909 50.7753364 0.10791016 56.8215332 C-3.10119702 62.12802623 -6.06661794 67.53806915 -9 73 C-10.82514543 76.37949561 -12.66097391 79.75304117 -14.5 83.125 C-14.95101074 83.9605542 -15.40202148 84.7961084 -15.86669922 85.65698242 C-23.99551072 100.54218961 -23.99551072 100.54218961 -28.75 104 C-29.86375 104.495 -29.86375 104.495 -31 105 C-31.99 105.495 -31.99 105.495 -33 106 C-35.75 106.3125 -35.75 106.3125 -39 106 C-42.38404406 104.07573965 -45.50574548 102.01936073 -48 99 C-49.37626315 94.87121056 -49.69159777 91.26616572 -49 87 C-47.25552135 82.7707821 -44.9712458 78.92063688 -42.625 75 C-41.98884766 73.90220215 -41.35269531 72.8044043 -40.69726562 71.67333984 C-38.81683219 68.43749832 -36.91163018 65.21748372 -35 62 C-34.01705806 60.32620802 -33.03516389 58.65179994 -32.0546875 56.9765625 C-30.40692577 54.16625255 -28.75121028 51.36087796 -27.08984375 48.55859375 C-24.86676991 44.79350337 -22.75547779 40.97530009 -20.68359375 37.125 C-13.96353067 24.65156505 -7.07244916 12.2767042 0 0 Z " fill="#020202" transform="translate(124,243)" />
<path d="M0 0 C1.62991555 -0.09823093 3.26409986 -0.12631949 4.89697266 -0.12698364 C5.95708557 -0.12980347 7.01719849 -0.13262329 8.10943604 -0.13552856 C9.86897614 -0.13249222 9.86897614 -0.13249222 11.6640625 -0.12939453 C12.89155212 -0.13114685 14.11904175 -0.13289917 15.38372803 -0.13470459 C18.75968279 -0.13836283 22.13557661 -0.13748964 25.51152802 -0.1343255 C29.03714584 -0.13180157 32.56276098 -0.13413954 36.08837891 -0.13571167 C42.01009593 -0.13753327 47.93180049 -0.13512732 53.85351562 -0.13037109 C60.7091681 -0.12492849 67.56479083 -0.12669115 74.42044258 -0.1321975 C80.29644081 -0.13672891 86.17243007 -0.13737904 92.04842949 -0.13475883 C95.56234093 -0.13319621 99.07623837 -0.13300188 102.59014893 -0.13629532 C106.50542363 -0.13970832 110.42066477 -0.13498383 114.3359375 -0.12939453 C115.50896423 -0.13141876 116.68199097 -0.13344299 117.89056396 -0.13552856 C119.48073334 -0.13129883 119.48073334 -0.13129883 121.10302734 -0.12698364 C122.02997406 -0.12660662 122.95692078 -0.12622959 123.91195679 -0.12584114 C124.60101105 -0.08431356 125.29006531 -0.04278599 126 0 C126.495 0.495 126.495 0.495 127 1 C127.1875 3.4375 127.1875 3.4375 127 6 C126.34 6.66 125.68 7.32 125 8 C122.82293701 8.25168228 122.82293701 8.25168228 120.06542969 8.25396729 C118.50060852 8.26242676 118.50060852 8.26242676 116.9041748 8.27105713 C115.75501587 8.26700867 114.60585693 8.26296021 113.421875 8.25878906 C112.21535278 8.2622937 111.00883057 8.26579834 109.76574707 8.26940918 C106.4516998 8.27671811 103.13790129 8.27498427 99.8238678 8.26865101 C96.36011412 8.263597 92.89637127 8.26828079 89.43261719 8.27142334 C83.6152149 8.27506474 77.79786334 8.27025935 71.98046875 8.26074219 C65.24918426 8.24985727 58.51802091 8.25338273 51.78673935 8.264395 C46.01345658 8.27346294 40.24021034 8.27475558 34.46692276 8.26951766 C31.01613631 8.26639523 27.56540684 8.26599605 24.11462402 8.27259064 C20.26907622 8.27942594 16.42366476 8.26995937 12.578125 8.25878906 C10.8543866 8.26486176 10.8543866 8.26486176 9.0958252 8.27105713 C8.05261108 8.26541748 7.00939697 8.25977783 5.93457031 8.25396729 C5.0245929 8.25321323 4.11461548 8.25245918 3.17706299 8.25168228 C2.09941681 8.12709955 2.09941681 8.12709955 1 8 C0.34 7.34 -0.32 6.68 -1 6 C-1.1875 3.4375 -1.1875 3.4375 -1 1 C-0.67 0.67 -0.34 0.34 0 0 Z " fill="#F9F9F9" transform="translate(122,137)" />
<path d="M0 0 C1.62991555 -0.09823093 3.26409986 -0.12631949 4.89697266 -0.12698364 C5.95708557 -0.12980347 7.01719849 -0.13262329 8.10943604 -0.13552856 C9.86897614 -0.13249222 9.86897614 -0.13249222 11.6640625 -0.12939453 C12.89155212 -0.13114685 14.11904175 -0.13289917 15.38372803 -0.13470459 C18.75968279 -0.13836283 22.13557661 -0.13748964 25.51152802 -0.1343255 C29.03714584 -0.13180157 32.56276098 -0.13413954 36.08837891 -0.13571167 C42.01009593 -0.13753327 47.93180049 -0.13512732 53.85351562 -0.13037109 C60.7091681 -0.12492849 67.56479083 -0.12669115 74.42044258 -0.1321975 C80.29644081 -0.13672891 86.17243007 -0.13737904 92.04842949 -0.13475883 C95.56234093 -0.13319621 99.07623837 -0.13300188 102.59014893 -0.13629532 C106.50542363 -0.13970832 110.42066477 -0.13498383 114.3359375 -0.12939453 C115.50896423 -0.13141876 116.68199097 -0.13344299 117.89056396 -0.13552856 C119.48073334 -0.13129883 119.48073334 -0.13129883 121.10302734 -0.12698364 C122.02997406 -0.12660662 122.95692078 -0.12622959 123.91195679 -0.12584114 C124.60101105 -0.08431356 125.29006531 -0.04278599 126 0 C126.495 0.495 126.495 0.495 127 1 C127.1875 3.4375 127.1875 3.4375 127 6 C126.34 6.66 125.68 7.32 125 8 C122.82293701 8.25168228 122.82293701 8.25168228 120.06542969 8.25396729 C118.50060852 8.26242676 118.50060852 8.26242676 116.9041748 8.27105713 C115.75501587 8.26700867 114.60585693 8.26296021 113.421875 8.25878906 C112.21535278 8.2622937 111.00883057 8.26579834 109.76574707 8.26940918 C106.4516998 8.27671811 103.13790129 8.27498427 99.8238678 8.26865101 C96.36011412 8.263597 92.89637127 8.26828079 89.43261719 8.27142334 C83.6152149 8.27506474 77.79786334 8.27025935 71.98046875 8.26074219 C65.24918426 8.24985727 58.51802091 8.25338273 51.78673935 8.264395 C46.01345658 8.27346294 40.24021034 8.27475558 34.46692276 8.26951766 C31.01613631 8.26639523 27.56540684 8.26599605 24.11462402 8.27259064 C20.26907622 8.27942594 16.42366476 8.26995937 12.578125 8.25878906 C10.8543866 8.26486176 10.8543866 8.26486176 9.0958252 8.27105713 C8.05261108 8.26541748 7.00939697 8.25977783 5.93457031 8.25396729 C5.0245929 8.25321323 4.11461548 8.25245918 3.17706299 8.25168228 C2.09941681 8.12709955 2.09941681 8.12709955 1 8 C0.34 7.34 -0.32 6.68 -1 6 C-1.1875 3.4375 -1.1875 3.4375 -1 1 C-0.67 0.67 -0.34 0.34 0 0 Z " fill="#F9F9F9" transform="translate(122,60)" />
<path d="M0 0 C1.83348083 -0.25168228 1.83348083 -0.25168228 4.09936523 -0.25396729 C5.38651932 -0.26242676 5.38651932 -0.26242676 6.69967651 -0.27105713 C7.6431192 -0.26700867 8.58656189 -0.26296021 9.55859375 -0.25878906 C10.55053741 -0.2622937 11.54248108 -0.26579834 12.56448364 -0.26940918 C15.85555951 -0.27823848 19.14642181 -0.27237307 22.4375 -0.265625 C24.71671592 -0.2669713 26.99593155 -0.26891154 29.27514648 -0.27142334 C34.05683114 -0.27437623 38.83844119 -0.27007163 43.62011719 -0.26074219 C49.76077717 -0.24934761 55.90126233 -0.25590619 62.04191589 -0.26788712 C66.74981004 -0.27510124 71.45766249 -0.27281984 76.16555786 -0.26763153 C78.43026754 -0.2662938 80.69498096 -0.26794705 82.95968628 -0.27259064 C86.12036218 -0.2776485 89.28075177 -0.26995598 92.44140625 -0.25878906 C93.85657028 -0.26486176 93.85657028 -0.26486176 95.30032349 -0.27105713 C96.58747757 -0.26259766 96.58747757 -0.26259766 97.90063477 -0.25396729 C98.64837662 -0.25321323 99.39611847 -0.25245918 100.16651917 -0.25168228 C100.77156784 -0.16862713 101.37661652 -0.08557198 102 0 C102.99 0.99 102.99 0.99 104 2 C104.25 4.5 104.25 4.5 104 7 C103.34 7.66 102.68 8.32 102 9 C100.16651917 9.25168228 100.16651917 9.25168228 97.90063477 9.25396729 C96.61348068 9.26242676 96.61348068 9.26242676 95.30032349 9.27105713 C94.3568808 9.26700867 93.41343811 9.26296021 92.44140625 9.25878906 C90.95349075 9.26404602 90.95349075 9.26404602 89.43551636 9.26940918 C86.14444049 9.27823848 82.85357819 9.27237307 79.5625 9.265625 C77.28328408 9.2669713 75.00406845 9.26891154 72.72485352 9.27142334 C67.94316886 9.27437623 63.16155881 9.27007163 58.37988281 9.26074219 C52.23922283 9.24934761 46.09873767 9.25590619 39.95808411 9.26788712 C35.25018996 9.27510124 30.54233751 9.27281984 25.83444214 9.26763153 C23.56973246 9.2662938 21.30501904 9.26794705 19.04031372 9.27259064 C15.87963782 9.2776485 12.71924823 9.26995598 9.55859375 9.25878906 C8.14342972 9.26486176 8.14342972 9.26486176 6.69967651 9.27105713 C5.84157379 9.26541748 4.98347107 9.25977783 4.09936523 9.25396729 C3.35162338 9.25321323 2.60388153 9.25245918 1.83348083 9.25168228 C1.22843216 9.16862713 0.62338348 9.08557198 0 9 C-0.66 8.34 -1.32 7.68 -2 7 C-2.25 4.5 -2.25 4.5 -2 2 C-1.34 1.34 -0.68 0.68 0 0 Z " fill="#E9E9E9" transform="translate(134,98)" />
</svg>
