
<svg version="1.1" xmlns="http://www.w3.org/2000/svg" width="24" height="24" viewBox="0 0 371 378" preserveAspectRatio="xMidYMid meet">
<path d="M0 0 C0.89053882 -0.00644889 1.78107765 -0.01289778 2.6986025 -0.0195421 C3.67796307 -0.01644489 4.65732364 -0.01334769 5.66636181 -0.01015663 C6.70599754 -0.01468774 7.74563327 -0.01921886 8.81677312 -0.02388728 C12.31747708 -0.03659698 15.81802678 -0.03490667 19.31875134 -0.03325844 C21.82174411 -0.03923961 24.32473503 -0.0460442 26.8277235 -0.05361366 C32.93143289 -0.06948194 39.03508532 -0.07572391 45.13881341 -0.07683842 C50.10008095 -0.07778827 55.06133572 -0.08189542 60.02259922 -0.08823967 C74.08555702 -0.10585701 88.14848427 -0.11507789 102.21145318 -0.11357872 C102.9698645 -0.11349881 103.72827582 -0.1134189 104.5096693 -0.11333656 C105.6486739 -0.11321392 105.6486739 -0.11321392 106.8106887 -0.1130888 C119.11553031 -0.11227599 131.42024948 -0.1314112 143.72505567 -0.1596133 C156.35646697 -0.1883357 168.98781856 -0.20215392 181.61926335 -0.20042574 C188.71207547 -0.19976157 195.80475928 -0.20526568 202.897542 -0.22678185 C209.5681414 -0.24688736 216.23842467 -0.24632654 222.90905285 -0.23174858 C225.35923883 -0.22965246 227.80944154 -0.23440889 230.25959873 -0.2464695 C233.60107437 -0.26185377 236.94160641 -0.25265803 240.28306103 -0.23720741 C241.25572944 -0.24749454 242.22839784 -0.25778167 243.23054105 -0.26838052 C247.42647737 -0.22542178 250.64137793 -0.13965002 254.22926712 2.17691994 C257.78285546 5.2117916 257.78285546 5.2117916 258.66518688 8.25726891 C258.86508272 10.80007256 258.95898048 13.23374807 258.95571423 15.77631187 C258.96243145 16.52803673 258.96914867 17.27976158 258.97606945 18.05426598 C258.99504658 20.53606361 258.99897348 23.01759076 259.00112438 25.49945641 C259.00755257 27.22814609 259.01428094 28.95683468 259.0212965 30.68552208 C259.03326858 34.30858444 259.0369774 37.93155145 259.03579235 41.55463219 C259.03558918 46.19064688 259.0628897 50.82604845 259.09733677 55.46191788 C259.11960608 59.03249466 259.12362988 62.60292389 259.1225729 66.173563 C259.12492887 67.8823527 259.13375225 69.59114647 259.14923763 71.29986763 C259.16889868 73.69349046 259.16306007 76.08579143 259.15102673 78.47943687 C259.16226574 79.18093864 259.17350475 79.88244041 259.18508434 80.60519981 C259.13895524 84.22763611 258.59281735 86.39389386 256.88482189 89.61838341 C254.71780245 92.19471517 253.70083363 93.05626754 250.66518688 94.25726891 C248.43946743 94.51898193 248.43946743 94.51898193 245.97017956 94.53574181 C245.0307098 94.54690529 244.09124004 94.55806877 243.12330151 94.56957054 C241.5879752 94.57281082 241.5879752 94.57281082 240.02163219 94.57611656 C238.93840176 94.58616219 237.85517132 94.59620781 236.73911572 94.60655785 C233.15718652 94.6374588 229.57533231 94.6544444 225.99331188 94.67133141 C223.51037479 94.69003747 221.02744408 94.70961045 218.54452038 94.73001671 C212.67625827 94.77615037 206.80799139 94.81353731 200.93964267 94.84668958 C193.60199478 94.88867818 186.26446496 94.9442421 178.92690563 94.99945641 C165.83972769 95.09629283 152.7525003 95.18105028 139.66518688 95.25726891 C138.379649 97.34256511 137.09455662 99.42813364 135.80971813 101.5138607 C135.44753185 102.10126785 135.08534557 102.688675 134.71218395 103.29388237 C132.31178236 107.191543 129.95669875 111.10736297 127.66518688 115.06976891 C127.08768688 116.06621422 126.51018688 117.06265953 125.91518688 118.08930016 C125.50268688 118.80472984 125.09018688 119.52015953 124.66518688 120.25726891 C124.00518688 120.25726891 123.34518688 120.25726891 122.66518688 120.25726891 C122.28185192 119.57100426 121.89851696 118.88473961 121.50356579 118.17767906 C119.76920851 115.07727243 118.02976647 111.97974817 116.29018688 108.88226891 C115.68690563 107.80203453 115.08362438 106.72180016 114.46206188 105.60883141 C113.88198376 104.57758141 113.30190563 103.54633141 112.70424938 102.48383141 C112.17009411 101.53073082 111.63593884 100.57763023 111.08559704 99.59564781 C109.74289084 97.17680841 109.74289084 97.17680841 107.66518688 95.25726891 C105.59005374 94.96066729 105.59005374 94.96066729 103.16840649 95.01917076 C102.22208355 95.01667824 101.27576061 95.01418571 100.30076122 95.01161766 C99.25917355 95.01888374 98.21758587 95.02614983 97.14443493 95.03363609 C96.05002087 95.03322823 94.9556068 95.03282036 93.82802868 95.03240013 C91.44515392 95.03220217 89.06227597 95.03625809 86.6794138 95.04400444 C82.90981433 95.05419009 79.14054755 95.04887341 75.37095165 95.03857994 C64.65100744 95.01053586 53.93127633 94.9976692 43.21132946 95.02728844 C36.66013951 95.04521007 30.10940452 95.03174508 23.55826283 95.00083733 C21.05879309 94.99472005 18.55927144 94.99963713 16.05984592 95.01571465 C12.56393937 95.03725893 9.06997431 95.02205893 5.57412243 94.99847984 C4.53860744 95.01384285 3.50309246 95.02920586 2.43619823 95.04503441 C-0.28659494 95.00576073 -2.69068526 94.90855621 -5.33481312 94.25726891 C-8.19986978 92.10085719 -9.73564344 89.45560826 -11.33481312 86.25726891 C-11.44838769 83.81762358 -11.50260774 81.4058392 -11.51181507 78.96527672 C-11.51838627 78.21384392 -11.52495747 77.46241112 -11.53172779 76.68820763 C-11.55147535 74.19560207 -11.56312754 71.70305686 -11.57309437 69.21039391 C-11.5771699 68.35917709 -11.58124542 67.50796028 -11.58544445 66.63094902 C-11.60631297 62.12422998 -11.6206104 57.61754145 -11.62997913 53.11078453 C-11.64103584 48.45905488 -11.67542473 43.80780462 -11.71515083 39.15624428 C-11.74131903 35.57710453 -11.74967121 31.99807885 -11.75326061 28.41885185 C-11.75812729 26.70446859 -11.76974367 24.99009046 -11.78829861 23.2758007 C-11.8126916 20.87242964 -11.81172506 18.47029661 -11.80478382 16.06683922 C-11.82399891 15.00987343 -11.82399891 15.00987343 -11.84360218 13.93155479 C-11.80505308 10.25829246 -11.27225234 8.14303844 -9.49293995 4.89417076 C-6.52867347 1.27228919 -4.58402485 0.00838469 0 0 Z " fill="#5D6BDB" transform="translate(61.33481311798096,10.742731094360352)" />
<path d="M0 0 C3.28062053 0.0214181 6.55904608 0.00013324 9.83959961 -0.02539062 C25.5707678 -0.04760916 38.42310339 1.43401344 51.81420898 10.26367188 C62.04933142 17.86765744 69.43541107 27.25646322 73.72827148 39.33398438 C76.1753111 47.09326821 75.97788001 54.90876446 75.91577148 62.95898438 C75.91125977 64.07208984 75.90674805 65.18519531 75.90209961 66.33203125 C75.89038341 69.06190538 75.87397847 71.79166611 75.85327148 74.52148438 C56.75132375 84.40349328 56.75132375 84.40349328 46.85327148 87.52148438 C46.15169922 87.7499707 45.45012695 87.97845703 44.72729492 88.21386719 C21.05146838 95.58078753 -11.07453376 96.48297994 -34.86157227 89.00976562 C-36.29096783 88.51658997 -37.71935915 88.02049401 -39.14672852 87.52148438 C-40.68880458 87.03298033 -42.23178753 86.54733045 -43.77563477 86.06445312 C-62.72774923 79.94046366 -62.72774923 79.94046366 -68.14672852 74.52148438 C-69.25508199 60.37524627 -70.09845216 45.2780737 -63.14672852 32.52148438 C-62.63883789 31.55855469 -62.13094727 30.595625 -61.60766602 29.60351562 C-55.7132922 19.47692554 -47.74017007 12.00034662 -37.68969727 6.09179688 C-24.95949605 0.44952467 -13.79457436 -0.10711833 0 0 Z " fill="#8D01FA" transform="translate(181.146728515625,269.478515625)" />
<path d="M0 0 C10.04179848 3.932268 18.86495435 10.15035985 25.16796875 18.94140625 C30.73481428 27.59587376 33.05510306 35.77451786 32.84765625 46.08203125 C32.03391485 56.11393692 28.14910957 65.9383138 21.91015625 73.8515625 C15.3113667 81.04560368 6.74394967 85.92349376 -2.65234375 88.3515625 C-12.87426314 90.37177292 -21.77604874 89.13403088 -31.40234375 85.1640625 C-39.90453404 80.82508942 -46.2322093 75.53567921 -51.08984375 67.3046875 C-56.35102431 57.33879739 -58.33327449 48.43866812 -57.40234375 37.1640625 C-55.71279826 27.58050613 -50.57788795 18.92034505 -44.0859375 11.75390625 C-32.40865739 0.72686912 -15.58298136 -3.82865443 0 0 Z " fill="#7701EF" transform="translate(197.40234375,170.8359375)" />
<path d="M0 0 C0.85486496 -0.00637985 1.70972992 -0.0127597 2.59049988 -0.01933289 C3.51236588 -0.02044571 4.43423187 -0.02155853 5.3840332 -0.02270508 C6.81414482 -0.02769768 6.81414482 -0.02769768 8.27314758 -0.03279114 C10.29309609 -0.0378562 12.31305296 -0.04019959 14.33300781 -0.04003906 C17.40549779 -0.04221556 20.47762286 -0.06034813 23.55004883 -0.0793457 C25.5155424 -0.0822818 27.48103767 -0.08426515 29.4465332 -0.08520508 C30.81415047 -0.09598335 30.81415047 -0.09598335 32.20939636 -0.10697937 C42.16049641 -0.07181403 52.01714002 2.29088625 60.3605957 7.90307617 C70.31176019 15.60428086 77.30348553 24.33277214 81.9074707 36.11401367 C83.46880905 41.93152701 82.9536774 48.11510417 82.87231445 54.08276367 C82.86329102 55.33895508 82.85426758 56.59514648 82.8449707 57.8894043 C82.82150694 60.9748889 82.78867647 64.05997572 82.74731445 67.14526367 C67.7469446 76.15402759 47.52091889 83.7432541 29.74731445 83.14526367 C29.66094727 82.23647461 29.57458008 81.32768555 29.4855957 80.39135742 C27.90162362 66.22279976 24.3019057 53.83055615 15.74731445 42.14526367 C14.98418945 41.09338867 14.22106445 40.04151367 13.43481445 38.95776367 C3.72773447 28.79919159 -8.64180829 21.64066406 -22.25268555 18.14526367 C-22.25268555 17.48526367 -22.25268555 16.82526367 -22.25268555 16.14526367 C-20.71362305 14.88354492 -20.71362305 14.88354492 -18.62768555 13.45776367 C-14.03556834 10.1380626 -9.81813003 6.27615264 -7.25268555 1.14526367 C-4.49691389 0.22667312 -2.84184016 0.01442675 0 0 Z " fill="#8401F6" transform="translate(237.252685546875,243.854736328125)" />
<path d="M0 0 C3.03479196 0.01618687 6.06827405 0.00003738 9.10302734 -0.01904297 C11.04183235 -0.01706233 12.98063655 -0.01322238 14.91943359 -0.00732422 C15.82156586 -0.01339691 16.72369812 -0.0194696 17.65316772 -0.02572632 C21.48017589 0.01710056 24.10020792 0.13757833 27.60913086 1.76757812 C30.11474558 3.76474196 32.12572707 5.95699018 34.20849609 8.39111328 C36.35564888 10.89178343 38.27322951 13.11489516 40.92333984 15.07861328 C41.49181641 15.51173828 42.06029297 15.94486328 42.64599609 16.39111328 C42.64599609 17.05111328 42.64599609 17.71111328 42.64599609 18.39111328 C41.52064453 18.71982422 41.52064453 18.71982422 40.37255859 19.05517578 C27.05279009 23.18195544 15.44685406 30.40397379 6.39599609 41.14111328 C-3.13215366 53.69132265 -6.47291111 67.03254385 -8.35400391 82.39111328 C-15.34105408 82.9451525 -21.7469246 82.09537309 -28.54150391 80.57861328 C-29.28899902 80.41329102 -30.03649414 80.24796875 -30.80664062 80.07763672 C-39.02003812 78.15508258 -46.36339825 75.03908081 -53.85400391 71.20361328 C-54.94455078 70.65157227 -54.94455078 70.65157227 -56.05712891 70.08837891 C-57.82463641 69.19299682 -59.58959629 68.29258853 -61.35400391 67.39111328 C-61.47166363 63.12051767 -61.54174021 58.85034731 -61.60400391 54.57861328 C-61.63751953 53.38300781 -61.67103516 52.18740234 -61.70556641 50.95556641 C-61.83288676 39.27392408 -58.74657097 30.60366539 -52.25634766 20.95751953 C-45.46453724 11.79485127 -36.71856541 5.38512341 -25.86572266 1.71533203 C-17.43092035 -0.45864509 -8.64933196 -0.0550733 0 0 Z " fill="#8401F6" transform="translate(111.35400390625,243.60888671875)" />
<path d="M0 0 C6.96514446 3.40824904 13.21286908 7.82547604 18 14 C18.71484375 16.2421875 18.71484375 16.2421875 19 18 C18.01 18.86625 17.02 19.7325 16 20.625 C9.02466166 27.62869337 3.60940669 37.45308765 1.390625 47.08203125 C0.19386487 56.02182942 0.75041655 65.09671791 2 74 C-8.73118375 77.76768834 -16.57415004 79.39810608 -27.625 76.375 C-37.29682397 73.12082241 -43.93561222 67.13975604 -50 59 C-51.67368392 56.08838418 -52.91859897 53.17590408 -54 50 C-54.22429687 49.34257812 -54.44859375 48.68515625 -54.6796875 48.0078125 C-57.32121568 38.99766845 -56.21007369 30.86090449 -53.26171875 22.046875 C-51.464279 17.70630841 -49.15677857 14.44583299 -46 11 C-45.21302734 10.07767578 -45.21302734 10.07767578 -44.41015625 9.13671875 C-39.12367258 3.3278061 -32.84790672 0.49640817 -25.625 -2.3125 C-16.76902481 -3.9920815 -8.32661908 -3.53614432 0 0 Z " fill="#7401ED" transform="translate(130,156)" />
<path d="M0 0 C8.90714179 4.25811637 16.25406023 10.03705309 21.3671875 18.62890625 C25.12446335 26.01695034 26.43182047 33.95787232 25.4921875 42.19140625 C23.19166916 52.92280146 19.12374127 61.00723628 11.1171875 68.50390625 C3.86377477 74.60502097 -3.5236346 77.55444923 -12.94921875 78.4140625 C-19.83735576 78.66199231 -26.3219382 77.2843434 -32.5078125 74.19140625 C-32.435625 73.65515625 -32.3634375 73.11890625 -32.2890625 72.56640625 C-30.69075852 59.0696171 -30.17776147 47.56522459 -36.5078125 35.19140625 C-40.10249671 28.68753575 -43.98669064 23.17388207 -49.5078125 18.19140625 C-47.51859601 12.4336741 -44.09580715 9.07780034 -39.5078125 5.19140625 C-36.6254982 3.21045172 -33.68946745 1.63711521 -30.5078125 0.19140625 C-29.81042969 -0.12828125 -29.11304688 -0.44796875 -28.39453125 -0.77734375 C-19.03635024 -4.47271322 -9.1871127 -3.8213063 0 0 Z " fill="#7401ED" transform="translate(270.5078125,155.80859375)" />
<path d="M0 0 C6.96514446 3.40824904 13.21286908 7.82547604 18 14 C18.71484375 16.2421875 18.71484375 16.2421875 19 18 C16 21 13 24 10 27 C7.42591858 27.22705078 7.42591858 27.22705078 4.12915039 27.1953125 C2.89769791 27.18870605 1.66624542 27.18209961 0.3974762 27.17529297 C-0.26232176 27.16705505 -0.92211971 27.15881714 -1.60191154 27.15032959 C-3.66544092 27.12483821 -5.7287137 27.11178083 -7.79237366 27.10205078 C-12.91829633 27.07528223 -18.04397549 27.02689958 -23.16973877 26.97924805 C-27.49913208 26.9398111 -31.82843473 26.9085175 -36.15796089 26.88812256 C-38.19164883 26.87514798 -40.22496474 26.85013084 -42.25852966 26.82470703 C-43.49313431 26.81810059 -44.72773895 26.81149414 -45.99975586 26.8046875 C-47.6328495 26.78897705 -47.6328495 26.78897705 -49.29893494 26.77294922 C-52.22292195 26.79974184 -52.22292195 26.79974184 -55 29 C-53.30892251 21.76100164 -50.92215008 16.57224538 -46 11 C-45.4740625 10.38125 -44.948125 9.7625 -44.40625 9.125 C-39.11044112 3.32958651 -32.8464636 0.49584696 -25.625 -2.3125 C-16.76902481 -3.9920815 -8.32661908 -3.53614432 0 0 Z " fill="#6D25E8" transform="translate(130,156)" />
<path d="M0 0 C9.06696384 4.33452033 16.35588231 10.20971134 21.5546875 18.94140625 C22.77734375 21.11328125 22.77734375 21.11328125 23.4921875 23.19140625 C23.03686523 25.32128906 23.03686523 25.32128906 22.4921875 27.19140625 C14.26875189 27.37720971 6.04620057 27.51913039 -2.1788187 27.60590363 C-5.99863153 27.64756317 -9.81700306 27.70401076 -13.63598633 27.79492188 C-17.32547471 27.88219527 -21.01358207 27.9297498 -24.70402336 27.95042419 C-26.10795772 27.96514564 -27.5118209 27.99389667 -28.91516304 28.0372467 C-33.22733198 28.16508855 -37.28993489 28.14001587 -41.5078125 27.19140625 C-44.69167898 25.00329893 -46.83235856 22.67948168 -48.5078125 19.19140625 C-48.5078125 15.19140625 -48.5078125 15.19140625 -47.2578125 13.26171875 C-40.59387074 5.8540335 -34.39870163 0.78826596 -24.71875 -2.11328125 C-16.02729268 -3.99537298 -8.20485396 -3.4127436 0 0 Z " fill="#6D25E8" transform="translate(270.5078125,155.80859375)" />
<path d="M0 0 C4.96191104 1.72677234 8.62434894 4.10886795 11.73046875 8.37890625 C13.82383881 12.21968326 14.92915607 15.39276635 15.4375 19.75 C14.63029747 25.74636165 12.82248331 30.2721917 9 35 C5.62608363 38.17398059 2.48862457 39.75001633 -2.09375 40.51953125 C-7.64339026 40.79830991 -12.14788818 40.46822412 -17 37.625 C-21.66254665 33.97567711 -24.23439492 29.61088923 -26 24 C-26.88053416 19.24354316 -26.38253812 15.26136812 -24.5 10.8125 C-19.20569635 1.29037114 -10.19923665 -1.23961841 0 0 Z " fill="#FBFCFE" transform="translate(124,38)" />
<path d="M0 0 C5.29843776 1.76614592 9.50702331 5.73700608 13 10 C15.17481562 13.65764445 15.49297655 17.33828172 15.3671875 21.53125 C14.65900687 26.29263469 12.79651151 30.11120399 10 34 C7.27391904 36.85076658 4.69115066 38.59953402 1 40 C-4.5045512 40.99463425 -9.48876341 41.07155814 -14.69140625 38.8515625 C-19.26832953 36.00135327 -22.51905949 32.85850849 -25 28 C-25.75 25.5625 -25.75 25.5625 -26 23 C-26.12375 21.948125 -26.2475 20.89625 -26.375 19.8125 C-25.84492075 14.42336093 -24.09792263 10.42872038 -21 6 C-14.98573413 -0.19837605 -8.36567849 -1.35533339 0 0 Z " fill="#FCFCFE" transform="translate(257,38)" />
<path d="M0 0 C5.09524245 2.27867849 8.68739411 5.72781029 11.78515625 10.34765625 C13.52704611 15.57332582 13.6629121 21.36328634 12.1015625 26.671875 C9.59353215 32.13542658 6.08892517 35.29903098 0.99609375 38.45703125 C-3.77947677 40.3807593 -9.17492969 39.85039082 -14.21484375 39.34765625 C-19.14235097 37.05988504 -22.04861161 33.65725 -25.21484375 29.34765625 C-27.73108948 24.04242486 -27.87907314 19.12645197 -27.21484375 13.34765625 C-25.88655771 9.30242149 -23.4279306 6.34381894 -20.27734375 3.53515625 C-14.01644962 -0.93691098 -7.51855907 -2.21446096 0 0 Z " fill="#FCFDFE" transform="translate(192.21484375,38.65234375)" />
<path d="M0 0 C0.65407333 -0.00043808 1.30814667 -0.00087616 1.98204041 -0.00132751 C4.13579556 0.0007562 6.2887643 0.02406602 8.44238281 0.04760742 C9.9388181 0.0532049 11.4352589 0.05747428 12.93170166 0.06047058 C16.86422997 0.07190753 20.7964242 0.10136449 24.7288208 0.13458252 C28.74397259 0.16530839 32.75917852 0.17898128 36.77441406 0.1940918 C44.64826504 0.22623557 52.52184483 0.27741768 60.39550781 0.34057617 C56.3535919 8.64626285 56.3535919 8.64626285 52.39550781 11.34057617 C47.64929206 12.29890186 42.94875235 12.1080407 38.13378906 11.95385742 C36.73711546 11.93569996 35.34039367 11.92095749 33.94364929 11.9094696 C30.2794435 11.87154205 26.61726741 11.79329977 22.95397949 11.70465088 C17.08136462 11.56979682 11.20760014 11.49826606 5.33397484 11.42339134 C3.28451178 11.39175449 1.235919 11.34404084 -0.81315613 11.29353333 C-2.05487076 11.27078842 -3.29658539 11.24804352 -4.57592773 11.22460938 C-5.6703569 11.19905472 -6.76478607 11.17350006 -7.89237976 11.14717102 C-10.82683783 11.13194897 -10.82683783 11.13194897 -13.60449219 13.34057617 C-13.2060666 11.73178195 -12.78496062 10.12859444 -12.35449219 8.52807617 C-12.12246094 7.63475586 -11.89042969 6.74143555 -11.65136719 5.82104492 C-10.60449219 3.34057617 -10.60449219 3.34057617 -8.95184326 1.70683289 C-5.82421515 -0.11357777 -3.6103902 -0.02035934 0 0 Z " fill="#6E14EA" transform="translate(88.6044921875,171.659423828125)" />
<path d="M0 0 C22.77 0 45.54 0 69 0 C70.32 2.31 71.64 4.62 73 7 C72.75 9.4375 72.75 9.4375 72 11 C63.77656439 11.18580346 55.55401307 11.32772414 47.3289938 11.41449738 C43.50918097 11.45615692 39.69080944 11.51260451 35.87182617 11.60351562 C32.18233779 11.69078902 28.49423043 11.73834355 24.80378914 11.75901794 C23.39985478 11.77373939 21.9959916 11.80249042 20.59264946 11.84584045 C16.28052056 11.97368112 12.21667691 11.95483499 8 11 C4.86783782 8.77094281 2.8520208 6.35472255 1 3 C0.67 2.01 0.34 1.02 0 0 Z " fill="#6E14EA" transform="translate(221,172)" />
<path d="M0 0 C5.3106322 2.13873044 8.85566606 4.3821891 13.40234375 8.01953125 C-3.75765625 8.01953125 -20.91765625 8.01953125 -38.59765625 8.01953125 C-36.13971808 5.56159308 -34.81036137 4.42060758 -31.84765625 2.95703125 C-30.89632812 2.47556641 -30.89632812 2.47556641 -29.92578125 1.984375 C-20.57930253 -1.88908179 -9.79424927 -2.66922537 0 0 Z " fill="#741EEA" transform="translate(197.59765625,170.98046875)" />
<path d="M0 0 C21.45 0 42.9 0 65 0 C64.34 1.32 63.68 2.64 63 4 C62.22992111 3.99555878 61.45984222 3.99111755 60.66642761 3.98654175 C53.41231044 3.94648241 46.15824684 3.9160245 38.90404797 3.89637566 C35.1745094 3.88593444 31.44506217 3.87176917 27.71557617 3.84912109 C24.11701369 3.82740461 20.5185391 3.81543392 16.91991615 3.81024551 C15.54637582 3.8065476 14.17284034 3.79932655 12.79933739 3.78853989 C10.87693338 3.77404171 8.95444109 3.77318322 7.03198242 3.77294922 C5.93722092 3.768508 4.84245941 3.76406677 3.71452332 3.75949097 C0.77933095 3.80109385 0.77933095 3.80109385 -2 6 C-1.34 4.02 -0.68 2.04 0 0 Z " fill="#700AEA" transform="translate(77,179)" />
<path d="M0 0 C21.78 0 43.56 0 66 0 C65.67 1.32 65.34 2.64 65 4 C43.88 4 22.76 4 1 4 C0.67 2.68 0.34 1.36 0 0 Z " fill="#700AEA" transform="translate(228,179)" />
<path d="M0 0 C17.82 0 35.64 0 54 0 C54.66 0.99 55.32 1.98 56 3 C37.19 3 18.38 3 -1 3 C-0.67 2.01 -0.34 1.02 0 0 Z " fill="#6F09EA" transform="translate(158,179)" />
</svg>
