
<svg version="1.1" xmlns="http://www.w3.org/2000/svg" width="24" height="24" viewBox="0 0 379 376" preserveAspectRatio="xMidYMid meet">
<path d="M0 0 C125.07 0 250.14 0 379 0 C379 124.08 379 248.16 379 376 C253.93 376 128.86 376 0 376 C0 251.92 0 127.84 0 0 Z " fill="#010101" transform="translate(0,0)" />
<path d="M0 0 C125.07 0 250.14 0 379 0 C379 124.08 379 248.16 379 376 C253.93 376 128.86 376 0 376 C0 251.92 0 127.84 0 0 Z M156 14 C153.73278034 14.43590155 151.46164988 14.85183234 149.1875 15.25 C118.36005434 21.16880751 90.59611477 37.55055374 68 59 C67.50918945 59.45826172 67.01837891 59.91652344 66.51269531 60.38867188 C38.3490763 86.8150957 22.62434898 120.28027925 14.54296875 157.6015625 C8.88039887 193.04354665 14.51460199 231.64707031 30 264 C38.9720848 281.37897091 49.80049615 296.38475056 63.41796875 310.37109375 C64.77187943 311.7651203 66.10670097 313.17764334 67.4375 314.59375 C87.50437265 335.54592585 118.02073722 352.41484559 146.29394531 358.49316406 C150.05637435 359.21092453 153.82867286 359.83400065 157.61328125 360.421875 C161 361 161 361 163 362 C180.56784348 364.5224704 199.51977036 364.03430401 217 361 C218.12148438 360.80664062 218.12148438 360.80664062 219.265625 360.609375 C254.74635955 354.2651377 285.53144466 338.31142735 311.53955078 313.39746094 C312.82841035 312.16418909 314.13005807 310.94431172 315.43359375 309.7265625 C340.13756356 286.03541142 355.63482021 253.06460701 362.29223633 219.84375 C368.33027951 188.814399 366.53519282 153.30582621 354 124 C353.50886719 122.79730469 353.01773437 121.59460938 352.51171875 120.35546875 C343.59911636 98.91157384 331.11963868 80.67789457 315 64 C314.11699219 63.06542969 313.23398437 62.13085938 312.32421875 61.16796875 C288.22132213 36.22792377 255.5874557 20.45201538 221.83935547 13.70556641 C210.22876139 11.45393349 198.7545399 10.83307082 186.9375 10.875 C185.84373047 10.87113281 184.74996094 10.86726562 183.62304688 10.86328125 C174.12764823 10.87457857 165.11320827 11.14181647 156 14 Z " fill="#FDFDFD" transform="translate(0,0)" />
<path d="M0 0 C3.04518399 0.39503614 4.64736103 1.70828869 6.89820862 3.73204041 C8.44423044 5.31162085 9.78124621 6.96441497 11.15957642 8.69116211 C14.62817608 12.6843925 18.48609667 15.95415543 22.57901001 19.2746582 C79.27470709 65.31836778 79.27470709 65.31836778 86.42428589 87.82287598 C89.74052139 100.62135801 89.73634459 113.76784348 88.9503479 126.88037109 C88.89785259 127.78228558 88.84535728 128.68420006 88.79127121 129.61344528 C86.97869938 158.4551225 86.97869938 158.4551225 83.20596313 165.71118164 C81.4503479 167.31787109 81.4503479 167.31787109 78.9458313 167.81907654 C77.94894287 167.81924271 76.95205444 167.81940887 75.92495728 167.81958008 C74.79368408 167.82896103 73.66241089 167.83834198 72.49685669 167.8480072 C70.66399109 167.83115623 70.66399109 167.83115623 68.7940979 167.81396484 C67.5402832 167.81542007 66.28646851 167.81687531 64.99465942 167.81837463 C62.34115043 167.81671304 59.68906936 167.80720122 57.03579712 167.78442383 C53.63589988 167.75603794 50.23690064 167.7587757 46.83693695 167.77151394 C43.59343268 167.78014343 40.35007402 167.76502492 37.1065979 167.75146484 C35.2737323 167.7558683 35.2737323 167.7558683 33.40383911 167.76036072 C32.27256592 167.74767654 31.14129272 167.73499237 29.97573853 167.72192383 C28.9788501 167.71652084 27.98196167 167.71111786 26.9548645 167.70555115 C24.4503479 167.31787109 24.4503479 167.31787109 22.63005066 166.08731079 C21.10277891 163.79655132 21.06628622 162.34833677 21.04971313 159.6027832 C21.02970497 158.17131203 21.02970497 158.17131203 21.0092926 156.71092224 C21.00911888 155.16864708 21.00911888 155.16864708 21.00894165 153.59521484 C20.98912987 152.01058189 20.98912987 152.01058189 20.96891785 150.39393616 C20.92795485 147.01438762 20.90632692 143.63511212 20.8878479 140.25537109 C20.86410173 136.87214211 20.83605324 133.48917193 20.79606628 130.10609436 C20.77161373 127.9994458 20.75683308 125.89265933 20.75245667 123.78587341 C20.73717674 122.35913048 20.73717674 122.35913048 20.72158813 120.90356445 C20.71517555 119.64472694 20.71517555 119.64472694 20.70863342 118.36045837 C20.6233992 117.68640457 20.53816498 117.01235077 20.4503479 116.31787109 C19.7903479 115.65787109 19.1303479 114.99787109 18.4503479 114.31787109 C15.74899467 114.11813376 13.15237579 114.03805536 10.4503479 114.05224609 C9.26312134 114.04937592 9.26312134 114.04937592 8.0519104 114.04644775 C6.377428 114.04508592 4.70293505 114.04878228 3.0284729 114.05712891 C0.46052409 114.06782869 -2.10672513 114.05723384 -4.6746521 114.04443359 C-6.29965365 114.04575519 -7.92465476 114.04831758 -9.5496521 114.05224609 C-10.70594116 114.0461734 -10.70594116 114.0461734 -11.8855896 114.03997803 C-13.77580777 114.05666458 -15.66450638 114.17848392 -17.5496521 114.31787109 C-18.2096521 114.97787109 -18.8696521 115.63787109 -19.5496521 116.31787109 C-19.85936297 118.43782868 -19.85936297 118.43782868 -19.82089233 120.90356445 C-19.83107895 121.85472641 -19.84126556 122.80588837 -19.85176086 123.78587341 C-19.85390091 124.81608109 -19.85604095 125.84628876 -19.85824585 126.90771484 C-19.88340264 129.07503528 -19.90880072 131.24235292 -19.93441772 133.40966797 C-19.9631994 136.83763937 -19.98720782 140.26556236 -20.00595093 143.69360352 C-20.02754645 146.99439629 -20.06698033 150.29461812 -20.10824585 153.59521484 C-20.10836166 154.62339828 -20.10847748 155.65158173 -20.1085968 156.71092224 C-20.12193558 157.66523636 -20.13527435 158.61955048 -20.14901733 159.6027832 C-20.15662331 160.8628141 -20.15662331 160.8628141 -20.16438293 162.14830017 C-20.5496521 164.31787109 -20.5496521 164.31787109 -21.72935486 166.08731079 C-24.25000841 167.79132711 -26.04305647 167.70549092 -29.07504272 167.72192383 C-30.77195251 167.74095009 -30.77195251 167.74095009 -32.50314331 167.76036072 C-33.72505371 167.75742508 -34.94696411 167.75448944 -36.2059021 167.75146484 C-37.4597168 167.7567067 -38.71353149 167.76194855 -40.00534058 167.76734924 C-42.65861309 167.7737783 -45.31102728 167.77385635 -47.96420288 167.76391602 C-51.36421419 167.75241884 -54.76318806 167.77264644 -58.16306305 167.80183315 C-61.40651506 167.82458746 -64.64988893 167.8177294 -67.8934021 167.81396484 C-69.1153125 167.82519882 -70.3372229 167.8364328 -71.59616089 167.8480072 C-72.72743408 167.83862625 -73.85870728 167.8292453 -75.02426147 167.81958008 C-76.0211499 167.81941391 -77.01803833 167.81924774 -78.0451355 167.81907654 C-80.5496521 167.31787109 -80.5496521 167.31787109 -82.33502197 165.74093628 C-83.97029814 162.47872446 -84.20153688 159.68495499 -84.50912476 156.04711914 C-84.57130471 155.31846429 -84.63348467 154.58980944 -84.69754887 153.83907413 C-85.47057944 144.24231222 -85.89648641 134.62787202 -86.1746521 125.00537109 C-86.20283649 124.08107929 -86.23102089 123.15678749 -86.26005936 122.20448685 C-87.21087038 86.85957727 -87.21087038 86.85957727 -79.82162476 74.80029297 C-71.73527138 63.22200639 -60.58198267 54.31940809 -48.92440796 46.52075195 C-45.09587518 43.88114337 -42.24644748 40.96578601 -39.28947449 37.39479065 C-34.0657887 31.15899598 -28.06910984 25.53043675 -22.34262085 19.76074219 C-20.72169992 18.12312761 -19.10618193 16.48014861 -17.49594116 14.83203125 C-15.15860501 12.44017306 -12.80546227 10.06496375 -10.4480896 7.69287109 C-9.73027313 6.95238525 -9.01245667 6.21189941 -8.27288818 5.44897461 C-7.59513336 4.77406982 -6.91737854 4.09916504 -6.21908569 3.40380859 C-5.62953094 2.80616699 -5.0399762 2.20852539 -4.43255615 1.59277344 C-2.5496521 0.31787109 -2.5496521 0.31787109 0 0 Z " fill="#FDFDFD" transform="translate(188.54965209960938,127.68212890625)" />
<path d="M0 0 C4.64556067 0.95456726 7.96738863 4.23677977 11.28125 7.46875 C12.28515131 8.62451976 13.28157803 9.78679717 14.27319336 10.953125 C18.41704329 15.70931646 22.84768967 20.14977173 27.32641602 24.58908081 C28.81839243 26.06806909 30.30702553 27.55035502 31.79492188 29.03344727 C34.95419765 32.18140249 38.11741023 35.3253827 41.28125 38.46875 C44.95315789 42.11689783 48.62334557 45.76674344 52.28930664 49.42086792 C53.74222908 50.86740069 55.19817281 52.31084167 56.65429688 53.75415039 C61.10797702 58.19144496 65.39341515 62.68027632 69.4859314 67.45080566 C73.16117152 71.5817883 77.14823982 75.41441837 81.08203125 79.296875 C82.48385113 80.6892867 83.88566528 82.08170422 85.28713512 83.47446823 C88.71040026 86.87493647 92.13923695 90.26977076 95.57055664 93.66210938 C97.50925474 95.57920027 99.44525555 97.49894311 101.37846375 99.42156982 C103.19161516 101.22438906 105.00887173 103.02309107 106.8306427 104.81719971 C107.64876938 105.63194763 108.46689606 106.44669556 109.30981445 107.28613281 C110.03038528 107.99924622 110.75095612 108.71235962 111.49336243 109.44708252 C113.2410425 111.42328506 114.31918771 113.02290621 115.28125 115.46875 C115.62312144 118.49675422 115.84085537 120.55320602 115.28125 123.46875 C113.86845255 125.9954839 112.42457661 127.425113 110.28125 129.46875 C106.66194302 130.67518566 104.08893995 130.79143559 100.28125 130.46875 C95.41090332 127.70108224 92.01395584 124.27320483 88.33984375 120.15234375 C82.17589324 113.40079172 75.79495424 106.89057867 69.31640625 100.44140625 C68.83290081 99.95952221 68.34939537 99.47763817 67.85123825 98.98115158 C64.35227981 95.49428739 60.84857717 92.0122138 57.34375 88.53125 C53.80937985 85.02073039 50.27682272 81.50842038 46.7484417 77.99188042 C45.35978712 76.60958836 43.96803576 75.2304095 42.57618713 73.85133362 C38.15656636 69.44878335 33.89898178 64.98549366 29.83555603 60.25236511 C27.55109844 57.63087809 25.12947667 55.18721763 22.671875 52.7265625 C22.17838562 52.23211639 21.68489624 51.73767029 21.17645264 51.22824097 C20.14929697 50.20041347 19.12091257 49.17381245 18.09130859 48.1484375 C16.51671546 46.5792655 14.94761722 45.00473769 13.37890625 43.4296875 C12.3727168 42.42415789 11.36621771 41.418938 10.359375 40.4140625 C9.45606445 39.51187988 8.55275391 38.60969727 7.62207031 37.68017578 C4.37775751 34.59887893 4.37775751 34.59887893 0.265625 33.0625 C-3.24235238 32.91531214 -5.76360866 32.89212763 -8.828125 34.7421875 C-11.2675385 36.80863282 -13.2803422 38.59193439 -14.71875 41.46875 C-15.37875 41.46875 -16.03875 41.46875 -16.71875 41.46875 C-16.93465286 42.01029724 -17.15055573 42.55184448 -17.3730011 43.10980225 C-19.18881206 46.29271637 -21.65976208 48.66349441 -24.25073242 51.21191406 C-24.81524109 51.77510849 -25.37974976 52.33830292 -25.96136475 52.91856384 C-27.82776197 54.77847388 -29.70103381 56.63130351 -31.57421875 58.484375 C-32.87789486 59.78177593 -34.18105398 61.07969654 -35.48371887 62.37811279 C-38.9176679 65.79875637 -42.35712863 69.21379922 -45.79821777 72.6272583 C-51.28891555 78.0748737 -56.77304118 83.5290825 -62.25374794 88.98674774 C-64.16058303 90.8834447 -66.07084392 92.77663889 -67.98149109 94.66949463 C-73.28914227 99.94055347 -78.53036646 105.19810348 -83.38093567 110.90039062 C-85.10015494 112.91588231 -86.92583741 114.80521592 -88.796875 116.6796875 C-89.48265625 117.36675781 -90.1684375 118.05382812 -90.875 118.76171875 C-91.91140625 119.79232422 -91.91140625 119.79232422 -92.96875 120.84375 C-93.67515625 121.55402344 -94.3815625 122.26429688 -95.109375 122.99609375 C-95.79 123.67542969 -96.470625 124.35476562 -97.171875 125.0546875 C-97.78192383 125.6636084 -98.39197266 126.2725293 -99.02050781 126.89990234 C-100.71875 128.46875 -100.71875 128.46875 -103.71875 130.46875 C-106.73861213 130.81529156 -108.80323739 131.02434769 -111.71875 130.46875 C-114.7408294 128.72424494 -117.13526082 126.63572836 -118.71875 123.46875 C-119.28837896 120.34873681 -119.26423217 117.59312216 -118.71875 114.46875 C-117.49243164 112.59863281 -117.49243164 112.59863281 -115.81640625 110.796875 C-115.17783691 110.1064209 -114.53926758 109.4159668 -113.88134766 108.70458984 C-109.85110566 104.53785286 -105.77417234 100.42388651 -101.65625 96.34375 C-100.69623625 95.3881563 -99.73652547 94.43225816 -98.77709961 93.47607422 C-95.25104527 89.96324408 -91.7195071 86.45594427 -88.18811035 82.94848633 C-85.19183792 79.97209483 -82.19772769 76.99355843 -79.20632935 74.01226807 C-77.8198966 72.63221867 -76.43037702 71.25527256 -75.04077148 69.87841797 C-71.36075075 66.21256844 -67.72996467 62.5557266 -64.3527832 58.60717773 C-59.38320619 52.8217527 -53.90672444 47.51294085 -48.51171875 42.12890625 C-47.33809573 40.95460843 -46.1646211 39.78016229 -44.99128723 38.60557556 C-42.54797545 36.16079862 -40.10288688 33.71781688 -37.65649414 31.27612305 C-34.5179771 28.1433407 -31.38402229 25.00603856 -28.25135326 21.86740971 C-25.83658488 19.44903602 -23.41945018 17.0330388 -21.00158119 14.61776543 C-19.84418621 13.46103784 -18.68753447 12.30356609 -17.53163719 11.14534187 C-15.92347778 9.53465239 -14.31216468 7.92718678 -12.69995117 6.32055664 C-11.78396652 5.40536758 -10.86798187 4.49017853 -9.92424011 3.54725647 C-6.75205244 0.55771117 -4.40473901 -0.0638368 0 0 Z " fill="#FBFBFB" transform="translate(190.71875,78.53125)" />
</svg>
