
<svg version="1.1" xmlns="http://www.w3.org/2000/svg" width="24" height="24" viewBox="0 0 376 374" preserveAspectRatio="xMidYMid meet">
<path d="M0 0 C4.62 0 9.24 0 14 0 C14 4.95 14 9.9 14 15 C33.14 15 52.28 15 72 15 C72 40.41 72 65.82 72 92 C52.86 92 33.72 92 14 92 C14.01770092 115.66092061 14.05597573 139.32151292 14.13209057 162.98231125 C14.16676658 173.96804787 14.19209952 184.95365867 14.19555664 195.93945312 C14.1985929 205.51295496 14.21903782 215.08623287 14.26052457 224.65964818 C14.28188697 229.73033045 14.29443856 234.80069411 14.28615379 239.87142181 C14.27863414 244.64203848 14.29435113 249.4120085 14.32806015 254.18250656 C14.33631867 255.93526936 14.33601376 257.68809616 14.32659721 259.44085312 C14.31502452 261.83118928 14.33401451 264.21938861 14.36076355 266.60955811 C14.34475366 267.65430994 14.34475366 267.65430994 14.32842034 268.72016788 C14.32070042 270.9123084 14.32070042 270.9123084 15 274 C17.32547215 276.34783975 17.32547215 276.34783975 20 278 C21.984375 280.62109375 21.984375 280.62109375 23.75 283.4375 C24.34296875 284.36433594 24.9359375 285.29117187 25.546875 286.24609375 C27 289 27 289 28 294 C13.81 294 -0.38 294 -15 294 C-13.75503003 287.77515017 -11.59846405 282.73816641 -7.18359375 278.0859375 C-5.50197787 276.6044304 -3.88575997 275.2112564 -2 274 C-1.34 274 -0.68 274 0 274 C0 183.58 0 93.16 0 0 Z " fill="#81B6FE" transform="translate(122,38)" />
<path d="M0 0 C0.33 0 0.66 0 1 0 C1 9.57 1 19.14 1 29 C24.76 29 48.52 29 73 29 C73 29.66 73 30.32 73 31 C71.72460938 32.25415039 71.72460938 32.25415039 69.84375 33.78515625 C63.36694249 39.29244165 57.48534207 45.4088451 51.5 51.4375 C50.28408886 52.6584369 49.06794484 53.87914192 47.8515625 55.09960938 C44.89835034 58.06374013 41.94830602 61.03098958 39 64 C39.4048581 66.37957663 39.85401872 67.8170939 41.37306213 69.72036743 C41.95708298 70.29169403 42.54110382 70.86302063 43.14282227 71.45166016 C43.80343155 72.10558746 44.46404083 72.75951477 45.14466858 73.43325806 C45.86134201 74.12817352 46.57801544 74.82308899 47.31640625 75.5390625 C48.04746078 76.26112885 48.77851532 76.98319519 49.53172302 77.72714233 C51.86830601 80.03367937 54.21451883 82.33007105 56.5625 84.625 C58.91315157 86.92793356 61.26154199 89.23300108 63.60398865 91.54428101 C65.0624055 92.98283226 66.52573886 94.41641852 67.99427795 95.84463501 C68.65173508 96.492258 69.3091922 97.13988098 69.98657227 97.80712891 C70.56979752 98.37686432 71.15302277 98.94659973 71.75392151 99.53359985 C72.37073036 100.25946793 72.37073036 100.25946793 73 101 C73 101.66 73 102.32 73 103 C46.6 103 20.2 103 -7 103 C-7 94.42 -7 85.84 -7 77 C-4.69 77 -2.38 77 0 77 C0 51.59 0 26.18 0 0 Z " fill="#A6D0FF" transform="translate(194,53)" />
<path d="M0 0 C4.29 0 8.58 0 13 0 C13 89.76 13 179.52 13 272 C8.71 272 4.42 272 0 272 C0 182.24 0 92.48 0 0 Z " fill="#7002C0" transform="translate(122,39)" />
<path d="M0 0 C4.62 0 9.24 0 14 0 C14.00054477 1.40843548 14.00108953 2.81687096 14.00165081 4.2679863 C14.01568763 37.68328629 14.05540677 71.09845456 14.12685562 104.51368074 C14.13562263 108.62435448 14.14417239 112.73502865 14.15258789 116.84570312 C14.15426695 117.66408233 14.15594602 118.48246154 14.15767596 119.32564011 C14.18436335 132.58578999 14.19344228 145.84589664 14.19604143 159.10607061 C14.19909827 172.70697976 14.22101374 186.3077637 14.26052457 199.9086163 C14.28431819 208.30464606 14.29331006 216.70042606 14.28351311 225.09648493 C14.27820724 230.84992511 14.29117943 236.60314098 14.3186629 242.35651729 C14.33398877 245.67873083 14.33841829 249.00002268 14.32659721 252.32231522 C14.31505649 255.92101762 14.33397181 259.5182916 14.36076355 263.11688232 C14.35009029 264.17135079 14.33941703 265.22581926 14.32842034 266.31224132 C14.36554465 268.97091665 14.43966717 271.40103315 15 274 C17.25566139 276.58512867 17.25566139 276.58512867 20 278 C21.984375 280.62109375 21.984375 280.62109375 23.75 283.4375 C24.34296875 284.36433594 24.9359375 285.29117187 25.546875 286.24609375 C27 289 27 289 28 294 C13.81 294 -0.38 294 -15 294 C-13.76477969 287.82389847 -11.63264269 282.77988221 -7.25390625 278.15625 C-4.36657925 275.62285341 -1.57496936 273.46768987 2 272 C4.2890625 271.76953125 4.2890625 271.76953125 6.625 271.8125 C7.40101563 271.81894531 8.17703125 271.82539063 8.9765625 271.83203125 C11 272 11 272 13 273 C13 183.24 13 93.48 13 1 C8.71 1 4.42 1 0 1 C0 0.67 0 0.34 0 0 Z " fill="#9875F1" transform="translate(122,38)" />
</svg>
